<?xml version="1.0" encoding="utf-8" standalone="no"?>
<!DOCTYPE svg PUBLIC "-//W3C//DTD SVG 1.1//EN"
  "http://www.w3.org/Graphics/SVG/1.1/DTD/svg11.dtd">
<svg xmlns:xlink="http://www.w3.org/1999/xlink" width="251.68174pt" height="179.531406pt" viewBox="0 0 251.68174 179.531406" xmlns="http://www.w3.org/2000/svg" version="1.1">
 <metadata>
  <rdf:RDF xmlns:dc="http://purl.org/dc/elements/1.1/" xmlns:cc="http://creativecommons.org/ns#" xmlns:rdf="http://www.w3.org/1999/02/22-rdf-syntax-ns#">
   <cc:Work>
    <dc:type rdf:resource="http://purl.org/dc/dcmitype/StillImage"/>
    <dc:date>2025-12-02T17:49:20.759370</dc:date>
    <dc:format>image/svg+xml</dc:format>
    <dc:creator>
     <cc:Agent>
      <dc:title>Matplotlib v3.8.2, https://matplotlib.org/</dc:title>
     </cc:Agent>
    </dc:creator>
   </cc:Work>
  </rdf:RDF>
 </metadata>
 <defs>
  <style type="text/css">*{stroke-linejoin: round; stroke-linecap: butt}</style>
 </defs>
 <g id="figure_1">
  <g id="patch_1">
   <path d="M 0 179.531406 
L 251.68174 179.531406 
L 251.68174 0 
L 0 0 
z
" style="fill: #ffffff"/>
  </g>
  <g id="axes_1">
   <g id="patch_2">
    <path d="M 44.222813 145.378594 
L 243.218582 145.378594 
L 243.218582 20.038594 
L 44.222813 20.038594 
z
" style="fill: #ffffff"/>
   </g>
   <g id="matplotlib.axis_1">
    <g id="xtick_1">
     <g id="line2d_1">
      <defs>
       <path id="m9625c23e15" d="M 0 0 
L 0 3 
" style="stroke: #000000; stroke-width: 0.8"/>
      </defs>
      <g>
       <use xlink:href="#m9625c23e15" x="60.805793" y="145.378594" style="stroke: #000000; stroke-width: 0.8"/>
      </g>
     </g>
     <g id="text_1">
      <!-- 2 -->
      <g transform="translate(58.260793 157.957344) scale(0.08 -0.08)">
       <defs>
        <path id="DejaVuSans-32" d="M 1228 531 
L 3431 531 
L 3431 0 
L 469 0 
L 469 531 
Q 828 903 1448 1529 
Q 2069 2156 2228 2338 
Q 2531 2678 2651 2914 
Q 2772 3150 2772 3378 
Q 2772 3750 2511 3984 
Q 2250 4219 1831 4219 
Q 1534 4219 1204 4116 
Q 875 4013 500 3803 
L 500 4441 
Q 881 4594 1212 4672 
Q 1544 4750 1819 4750 
Q 2544 4750 2975 4387 
Q 3406 4025 3406 3419 
Q 3406 3131 3298 2873 
Q 3191 2616 2906 2266 
Q 2828 2175 2409 1742 
Q 1991 1309 1228 531 
z
" transform="scale(0.015625)"/>
       </defs>
       <use xlink:href="#DejaVuSans-32"/>
      </g>
     </g>
    </g>
    <g id="xtick_2">
     <g id="line2d_2">
      <g>
       <use xlink:href="#m9625c23e15" x="86.318071" y="145.378594" style="stroke: #000000; stroke-width: 0.8"/>
      </g>
     </g>
     <g id="text_2">
      <!-- 4 -->
      <g transform="translate(83.773071 157.957344) scale(0.08 -0.08)">
       <defs>
        <path id="DejaVuSans-34" d="M 2419 4116 
L 825 1625 
L 2419 1625 
L 2419 4116 
z
M 2253 4666 
L 3047 4666 
L 3047 1625 
L 3713 1625 
L 3713 1100 
L 3047 1100 
L 3047 0 
L 2419 0 
L 2419 1100 
L 313 1100 
L 313 1709 
L 2253 4666 
z
" transform="scale(0.015625)"/>
       </defs>
       <use xlink:href="#DejaVuSans-34"/>
      </g>
     </g>
    </g>
    <g id="xtick_3">
     <g id="line2d_3">
      <g>
       <use xlink:href="#m9625c23e15" x="111.830349" y="145.378594" style="stroke: #000000; stroke-width: 0.8"/>
      </g>
     </g>
     <g id="text_3">
      <!-- 6 -->
      <g transform="translate(109.285349 157.957344) scale(0.08 -0.08)">
       <defs>
        <path id="DejaVuSans-36" d="M 2113 2584 
Q 1688 2584 1439 2293 
Q 1191 2003 1191 1497 
Q 1191 994 1439 701 
Q 1688 409 2113 409 
Q 2538 409 2786 701 
Q 3034 994 3034 1497 
Q 3034 2003 2786 2293 
Q 2538 2584 2113 2584 
z
M 3366 4563 
L 3366 3988 
Q 3128 4100 2886 4159 
Q 2644 4219 2406 4219 
Q 1781 4219 1451 3797 
Q 1122 3375 1075 2522 
Q 1259 2794 1537 2939 
Q 1816 3084 2150 3084 
Q 2853 3084 3261 2657 
Q 3669 2231 3669 1497 
Q 3669 778 3244 343 
Q 2819 -91 2113 -91 
Q 1303 -91 875 529 
Q 447 1150 447 2328 
Q 447 3434 972 4092 
Q 1497 4750 2381 4750 
Q 2619 4750 2861 4703 
Q 3103 4656 3366 4563 
z
" transform="scale(0.015625)"/>
       </defs>
       <use xlink:href="#DejaVuSans-36"/>
      </g>
     </g>
    </g>
    <g id="xtick_4">
     <g id="line2d_4">
      <g>
       <use xlink:href="#m9625c23e15" x="137.342628" y="145.378594" style="stroke: #000000; stroke-width: 0.8"/>
      </g>
     </g>
     <g id="text_4">
      <!-- 8 -->
      <g transform="translate(134.797628 157.957344) scale(0.08 -0.08)">
       <defs>
        <path id="DejaVuSans-38" d="M 2034 2216 
Q 1584 2216 1326 1975 
Q 1069 1734 1069 1313 
Q 1069 891 1326 650 
Q 1584 409 2034 409 
Q 2484 409 2743 651 
Q 3003 894 3003 1313 
Q 3003 1734 2745 1975 
Q 2488 2216 2034 2216 
z
M 1403 2484 
Q 997 2584 770 2862 
Q 544 3141 544 3541 
Q 544 4100 942 4425 
Q 1341 4750 2034 4750 
Q 2731 4750 3128 4425 
Q 3525 4100 3525 3541 
Q 3525 3141 3298 2862 
Q 3072 2584 2669 2484 
Q 3125 2378 3379 2068 
Q 3634 1759 3634 1313 
Q 3634 634 3220 271 
Q 2806 -91 2034 -91 
Q 1263 -91 848 271 
Q 434 634 434 1313 
Q 434 1759 690 2068 
Q 947 2378 1403 2484 
z
M 1172 3481 
Q 1172 3119 1398 2916 
Q 1625 2713 2034 2713 
Q 2441 2713 2670 2916 
Q 2900 3119 2900 3481 
Q 2900 3844 2670 4047 
Q 2441 4250 2034 4250 
Q 1625 4250 1398 4047 
Q 1172 3844 1172 3481 
z
" transform="scale(0.015625)"/>
       </defs>
       <use xlink:href="#DejaVuSans-38"/>
      </g>
     </g>
    </g>
    <g id="xtick_5">
     <g id="line2d_5">
      <g>
       <use xlink:href="#m9625c23e15" x="162.854906" y="145.378594" style="stroke: #000000; stroke-width: 0.8"/>
      </g>
     </g>
     <g id="text_5">
      <!-- 10 -->
      <g transform="translate(157.764906 157.957344) scale(0.08 -0.08)">
       <defs>
        <path id="DejaVuSans-31" d="M 794 531 
L 1825 531 
L 1825 4091 
L 703 3866 
L 703 4441 
L 1819 4666 
L 2450 4666 
L 2450 531 
L 3481 531 
L 3481 0 
L 794 0 
L 794 531 
z
" transform="scale(0.015625)"/>
        <path id="DejaVuSans-30" d="M 2034 4250 
Q 1547 4250 1301 3770 
Q 1056 3291 1056 2328 
Q 1056 1369 1301 889 
Q 1547 409 2034 409 
Q 2525 409 2770 889 
Q 3016 1369 3016 2328 
Q 3016 3291 2770 3770 
Q 2525 4250 2034 4250 
z
M 2034 4750 
Q 2819 4750 3233 4129 
Q 3647 3509 3647 2328 
Q 3647 1150 3233 529 
Q 2819 -91 2034 -91 
Q 1250 -91 836 529 
Q 422 1150 422 2328 
Q 422 3509 836 4129 
Q 1250 4750 2034 4750 
z
" transform="scale(0.015625)"/>
       </defs>
       <use xlink:href="#DejaVuSans-31"/>
       <use xlink:href="#DejaVuSans-30" x="63.623047"/>
      </g>
     </g>
    </g>
    <g id="xtick_6">
     <g id="line2d_6">
      <g>
       <use xlink:href="#m9625c23e15" x="188.367184" y="145.378594" style="stroke: #000000; stroke-width: 0.8"/>
      </g>
     </g>
     <g id="text_6">
      <!-- 12 -->
      <g transform="translate(183.277184 157.957344) scale(0.08 -0.08)">
       <use xlink:href="#DejaVuSans-31"/>
       <use xlink:href="#DejaVuSans-32" x="63.623047"/>
      </g>
     </g>
    </g>
    <g id="xtick_7">
     <g id="line2d_7">
      <g>
       <use xlink:href="#m9625c23e15" x="213.879462" y="145.378594" style="stroke: #000000; stroke-width: 0.8"/>
      </g>
     </g>
     <g id="text_7">
      <!-- 14 -->
      <g transform="translate(208.789462 157.957344) scale(0.08 -0.08)">
       <use xlink:href="#DejaVuSans-31"/>
       <use xlink:href="#DejaVuSans-34" x="63.623047"/>
      </g>
     </g>
    </g>
    <g id="xtick_8">
     <g id="line2d_8">
      <g>
       <use xlink:href="#m9625c23e15" x="239.39174" y="145.378594" style="stroke: #000000; stroke-width: 0.8"/>
      </g>
     </g>
     <g id="text_8">
      <!-- 16 -->
      <g transform="translate(234.30174 157.957344) scale(0.08 -0.08)">
       <use xlink:href="#DejaVuSans-31"/>
       <use xlink:href="#DejaVuSans-36" x="63.623047"/>
      </g>
     </g>
    </g>
    <g id="text_9">
     <!-- Round -->
     <g transform="translate(129.482416 170.459687) scale(0.09 -0.09)">
      <defs>
       <path id="DejaVuSans-52" d="M 2841 2188 
Q 3044 2119 3236 1894 
Q 3428 1669 3622 1275 
L 4263 0 
L 3584 0 
L 2988 1197 
Q 2756 1666 2539 1819 
Q 2322 1972 1947 1972 
L 1259 1972 
L 1259 0 
L 628 0 
L 628 4666 
L 2053 4666 
Q 2853 4666 3247 4331 
Q 3641 3997 3641 3322 
Q 3641 2881 3436 2590 
Q 3231 2300 2841 2188 
z
M 1259 4147 
L 1259 2491 
L 2053 2491 
Q 2509 2491 2742 2702 
Q 2975 2913 2975 3322 
Q 2975 3731 2742 3939 
Q 2509 4147 2053 4147 
L 1259 4147 
z
" transform="scale(0.015625)"/>
       <path id="DejaVuSans-6f" d="M 1959 3097 
Q 1497 3097 1228 2736 
Q 959 2375 959 1747 
Q 959 1119 1226 758 
Q 1494 397 1959 397 
Q 2419 397 2687 759 
Q 2956 1122 2956 1747 
Q 2956 2369 2687 2733 
Q 2419 3097 1959 3097 
z
M 1959 3584 
Q 2709 3584 3137 3096 
Q 3566 2609 3566 1747 
Q 3566 888 3137 398 
Q 2709 -91 1959 -91 
Q 1206 -91 779 398 
Q 353 888 353 1747 
Q 353 2609 779 3096 
Q 1206 3584 1959 3584 
z
" transform="scale(0.015625)"/>
       <path id="DejaVuSans-75" d="M 544 1381 
L 544 3500 
L 1119 3500 
L 1119 1403 
Q 1119 906 1312 657 
Q 1506 409 1894 409 
Q 2359 409 2629 706 
Q 2900 1003 2900 1516 
L 2900 3500 
L 3475 3500 
L 3475 0 
L 2900 0 
L 2900 538 
Q 2691 219 2414 64 
Q 2138 -91 1772 -91 
Q 1169 -91 856 284 
Q 544 659 544 1381 
z
M 1991 3584 
L 1991 3584 
z
" transform="scale(0.015625)"/>
       <path id="DejaVuSans-6e" d="M 3513 2113 
L 3513 0 
L 2938 0 
L 2938 2094 
Q 2938 2591 2744 2837 
Q 2550 3084 2163 3084 
Q 1697 3084 1428 2787 
Q 1159 2491 1159 1978 
L 1159 0 
L 581 0 
L 581 3500 
L 1159 3500 
L 1159 2956 
Q 1366 3272 1645 3428 
Q 1925 3584 2291 3584 
Q 2894 3584 3203 3211 
Q 3513 2838 3513 2113 
z
" transform="scale(0.015625)"/>
       <path id="DejaVuSans-64" d="M 2906 2969 
L 2906 4863 
L 3481 4863 
L 3481 0 
L 2906 0 
L 2906 525 
Q 2725 213 2448 61 
Q 2172 -91 1784 -91 
Q 1150 -91 751 415 
Q 353 922 353 1747 
Q 353 2572 751 3078 
Q 1150 3584 1784 3584 
Q 2172 3584 2448 3432 
Q 2725 3281 2906 2969 
z
M 947 1747 
Q 947 1113 1208 752 
Q 1469 391 1925 391 
Q 2381 391 2643 752 
Q 2906 1113 2906 1747 
Q 2906 2381 2643 2742 
Q 2381 3103 1925 3103 
Q 1469 3103 1208 2742 
Q 947 2381 947 1747 
z
" transform="scale(0.015625)"/>
      </defs>
      <use xlink:href="#DejaVuSans-52"/>
      <use xlink:href="#DejaVuSans-6f" x="64.982422"/>
      <use xlink:href="#DejaVuSans-75" x="126.164062"/>
      <use xlink:href="#DejaVuSans-6e" x="189.542969"/>
      <use xlink:href="#DejaVuSans-64" x="252.921875"/>
     </g>
    </g>
   </g>
   <g id="matplotlib.axis_2">
    <g id="ytick_1">
     <g id="line2d_9">
      <defs>
       <path id="md2c58c015a" d="M 0 0 
L -3 0 
" style="stroke: #000000; stroke-width: 0.8"/>
      </defs>
      <g>
       <use xlink:href="#md2c58c015a" x="44.222813" y="126.502935" style="stroke: #000000; stroke-width: 0.8"/>
      </g>
     </g>
     <g id="text_10">
      <!-- 10.0 -->
      <g transform="translate(19.910313 129.54231) scale(0.08 -0.08)">
       <defs>
        <path id="DejaVuSans-2e" d="M 684 794 
L 1344 794 
L 1344 0 
L 684 0 
L 684 794 
z
" transform="scale(0.015625)"/>
       </defs>
       <use xlink:href="#DejaVuSans-31"/>
       <use xlink:href="#DejaVuSans-30" x="63.623047"/>
       <use xlink:href="#DejaVuSans-2e" x="127.246094"/>
       <use xlink:href="#DejaVuSans-30" x="159.033203"/>
      </g>
     </g>
    </g>
    <g id="ytick_2">
     <g id="line2d_10">
      <g>
       <use xlink:href="#md2c58c015a" x="44.222813" y="105.904275" style="stroke: #000000; stroke-width: 0.8"/>
      </g>
     </g>
     <g id="text_11">
      <!-- 12.5 -->
      <g transform="translate(19.910313 108.94365) scale(0.08 -0.08)">
       <defs>
        <path id="DejaVuSans-35" d="M 691 4666 
L 3169 4666 
L 3169 4134 
L 1269 4134 
L 1269 2991 
Q 1406 3038 1543 3061 
Q 1681 3084 1819 3084 
Q 2600 3084 3056 2656 
Q 3513 2228 3513 1497 
Q 3513 744 3044 326 
Q 2575 -91 1722 -91 
Q 1428 -91 1123 -41 
Q 819 9 494 109 
L 494 744 
Q 775 591 1075 516 
Q 1375 441 1709 441 
Q 2250 441 2565 725 
Q 2881 1009 2881 1497 
Q 2881 1984 2565 2268 
Q 2250 2553 1709 2553 
Q 1456 2553 1204 2497 
Q 953 2441 691 2322 
L 691 4666 
z
" transform="scale(0.015625)"/>
       </defs>
       <use xlink:href="#DejaVuSans-31"/>
       <use xlink:href="#DejaVuSans-32" x="63.623047"/>
       <use xlink:href="#DejaVuSans-2e" x="127.246094"/>
       <use xlink:href="#DejaVuSans-35" x="159.033203"/>
      </g>
     </g>
    </g>
    <g id="ytick_3">
     <g id="line2d_11">
      <g>
       <use xlink:href="#md2c58c015a" x="44.222813" y="85.305615" style="stroke: #000000; stroke-width: 0.8"/>
      </g>
     </g>
     <g id="text_12">
      <!-- 15.0 -->
      <g transform="translate(19.910313 88.34499) scale(0.08 -0.08)">
       <use xlink:href="#DejaVuSans-31"/>
       <use xlink:href="#DejaVuSans-35" x="63.623047"/>
       <use xlink:href="#DejaVuSans-2e" x="127.246094"/>
       <use xlink:href="#DejaVuSans-30" x="159.033203"/>
      </g>
     </g>
    </g>
    <g id="ytick_4">
     <g id="line2d_12">
      <g>
       <use xlink:href="#md2c58c015a" x="44.222813" y="64.706955" style="stroke: #000000; stroke-width: 0.8"/>
      </g>
     </g>
     <g id="text_13">
      <!-- 17.5 -->
      <g transform="translate(19.910313 67.74633) scale(0.08 -0.08)">
       <defs>
        <path id="DejaVuSans-37" d="M 525 4666 
L 3525 4666 
L 3525 4397 
L 1831 0 
L 1172 0 
L 2766 4134 
L 525 4134 
L 525 4666 
z
" transform="scale(0.015625)"/>
       </defs>
       <use xlink:href="#DejaVuSans-31"/>
       <use xlink:href="#DejaVuSans-37" x="63.623047"/>
       <use xlink:href="#DejaVuSans-2e" x="127.246094"/>
       <use xlink:href="#DejaVuSans-35" x="159.033203"/>
      </g>
     </g>
    </g>
    <g id="ytick_5">
     <g id="line2d_13">
      <g>
       <use xlink:href="#md2c58c015a" x="44.222813" y="44.108296" style="stroke: #000000; stroke-width: 0.8"/>
      </g>
     </g>
     <g id="text_14">
      <!-- 20.0 -->
      <g transform="translate(19.910313 47.147671) scale(0.08 -0.08)">
       <use xlink:href="#DejaVuSans-32"/>
       <use xlink:href="#DejaVuSans-30" x="63.623047"/>
       <use xlink:href="#DejaVuSans-2e" x="127.246094"/>
       <use xlink:href="#DejaVuSans-30" x="159.033203"/>
      </g>
     </g>
    </g>
    <g id="ytick_6">
     <g id="line2d_14">
      <g>
       <use xlink:href="#md2c58c015a" x="44.222813" y="23.509636" style="stroke: #000000; stroke-width: 0.8"/>
      </g>
     </g>
     <g id="text_15">
      <!-- 22.5 -->
      <g transform="translate(19.910313 26.549011) scale(0.08 -0.08)">
       <use xlink:href="#DejaVuSans-32"/>
       <use xlink:href="#DejaVuSans-32" x="63.623047"/>
       <use xlink:href="#DejaVuSans-2e" x="127.246094"/>
       <use xlink:href="#DejaVuSans-35" x="159.033203"/>
      </g>
     </g>
    </g>
    <g id="text_16">
     <!-- Total payoff per round -->
     <g transform="translate(14.038594 132.245859) rotate(-90) scale(0.09 -0.09)">
      <defs>
       <path id="DejaVuSans-54" d="M -19 4666 
L 3928 4666 
L 3928 4134 
L 2272 4134 
L 2272 0 
L 1638 0 
L 1638 4134 
L -19 4134 
L -19 4666 
z
" transform="scale(0.015625)"/>
       <path id="DejaVuSans-74" d="M 1172 4494 
L 1172 3500 
L 2356 3500 
L 2356 3053 
L 1172 3053 
L 1172 1153 
Q 1172 725 1289 603 
Q 1406 481 1766 481 
L 2356 481 
L 2356 0 
L 1766 0 
Q 1100 0 847 248 
Q 594 497 594 1153 
L 594 3053 
L 172 3053 
L 172 3500 
L 594 3500 
L 594 4494 
L 1172 4494 
z
" transform="scale(0.015625)"/>
       <path id="DejaVuSans-61" d="M 2194 1759 
Q 1497 1759 1228 1600 
Q 959 1441 959 1056 
Q 959 750 1161 570 
Q 1363 391 1709 391 
Q 2188 391 2477 730 
Q 2766 1069 2766 1631 
L 2766 1759 
L 2194 1759 
z
M 3341 1997 
L 3341 0 
L 2766 0 
L 2766 531 
Q 2569 213 2275 61 
Q 1981 -91 1556 -91 
Q 1019 -91 701 211 
Q 384 513 384 1019 
Q 384 1609 779 1909 
Q 1175 2209 1959 2209 
L 2766 2209 
L 2766 2266 
Q 2766 2663 2505 2880 
Q 2244 3097 1772 3097 
Q 1472 3097 1187 3025 
Q 903 2953 641 2809 
L 641 3341 
Q 956 3463 1253 3523 
Q 1550 3584 1831 3584 
Q 2591 3584 2966 3190 
Q 3341 2797 3341 1997 
z
" transform="scale(0.015625)"/>
       <path id="DejaVuSans-6c" d="M 603 4863 
L 1178 4863 
L 1178 0 
L 603 0 
L 603 4863 
z
" transform="scale(0.015625)"/>
       <path id="DejaVuSans-20" transform="scale(0.015625)"/>
       <path id="DejaVuSans-70" d="M 1159 525 
L 1159 -1331 
L 581 -1331 
L 581 3500 
L 1159 3500 
L 1159 2969 
Q 1341 3281 1617 3432 
Q 1894 3584 2278 3584 
Q 2916 3584 3314 3078 
Q 3713 2572 3713 1747 
Q 3713 922 3314 415 
Q 2916 -91 2278 -91 
Q 1894 -91 1617 61 
Q 1341 213 1159 525 
z
M 3116 1747 
Q 3116 2381 2855 2742 
Q 2594 3103 2138 3103 
Q 1681 3103 1420 2742 
Q 1159 2381 1159 1747 
Q 1159 1113 1420 752 
Q 1681 391 2138 391 
Q 2594 391 2855 752 
Q 3116 1113 3116 1747 
z
" transform="scale(0.015625)"/>
       <path id="DejaVuSans-79" d="M 2059 -325 
Q 1816 -950 1584 -1140 
Q 1353 -1331 966 -1331 
L 506 -1331 
L 506 -850 
L 844 -850 
Q 1081 -850 1212 -737 
Q 1344 -625 1503 -206 
L 1606 56 
L 191 3500 
L 800 3500 
L 1894 763 
L 2988 3500 
L 3597 3500 
L 2059 -325 
z
" transform="scale(0.015625)"/>
       <path id="DejaVuSans-66" d="M 2375 4863 
L 2375 4384 
L 1825 4384 
Q 1516 4384 1395 4259 
Q 1275 4134 1275 3809 
L 1275 3500 
L 2222 3500 
L 2222 3053 
L 1275 3053 
L 1275 0 
L 697 0 
L 697 3053 
L 147 3053 
L 147 3500 
L 697 3500 
L 697 3744 
Q 697 4328 969 4595 
Q 1241 4863 1831 4863 
L 2375 4863 
z
" transform="scale(0.015625)"/>
       <path id="DejaVuSans-65" d="M 3597 1894 
L 3597 1613 
L 953 1613 
Q 991 1019 1311 708 
Q 1631 397 2203 397 
Q 2534 397 2845 478 
Q 3156 559 3463 722 
L 3463 178 
Q 3153 47 2828 -22 
Q 2503 -91 2169 -91 
Q 1331 -91 842 396 
Q 353 884 353 1716 
Q 353 2575 817 3079 
Q 1281 3584 2069 3584 
Q 2775 3584 3186 3129 
Q 3597 2675 3597 1894 
z
M 3022 2063 
Q 3016 2534 2758 2815 
Q 2500 3097 2075 3097 
Q 1594 3097 1305 2825 
Q 1016 2553 972 2059 
L 3022 2063 
z
" transform="scale(0.015625)"/>
       <path id="DejaVuSans-72" d="M 2631 2963 
Q 2534 3019 2420 3045 
Q 2306 3072 2169 3072 
Q 1681 3072 1420 2755 
Q 1159 2438 1159 1844 
L 1159 0 
L 581 0 
L 581 3500 
L 1159 3500 
L 1159 2956 
Q 1341 3275 1631 3429 
Q 1922 3584 2338 3584 
Q 2397 3584 2469 3576 
Q 2541 3569 2628 3553 
L 2631 2963 
z
" transform="scale(0.015625)"/>
      </defs>
      <use xlink:href="#DejaVuSans-54"/>
      <use xlink:href="#DejaVuSans-6f" x="44.083984"/>
      <use xlink:href="#DejaVuSans-74" x="105.265625"/>
      <use xlink:href="#DejaVuSans-61" x="144.474609"/>
      <use xlink:href="#DejaVuSans-6c" x="205.753906"/>
      <use xlink:href="#DejaVuSans-20" x="233.537109"/>
      <use xlink:href="#DejaVuSans-70" x="265.324219"/>
      <use xlink:href="#DejaVuSans-61" x="328.800781"/>
      <use xlink:href="#DejaVuSans-79" x="390.080078"/>
      <use xlink:href="#DejaVuSans-6f" x="449.259766"/>
      <use xlink:href="#DejaVuSans-66" x="510.441406"/>
      <use xlink:href="#DejaVuSans-66" x="545.646484"/>
      <use xlink:href="#DejaVuSans-20" x="580.851562"/>
      <use xlink:href="#DejaVuSans-70" x="612.638672"/>
      <use xlink:href="#DejaVuSans-65" x="676.115234"/>
      <use xlink:href="#DejaVuSans-72" x="737.638672"/>
      <use xlink:href="#DejaVuSans-20" x="778.751953"/>
      <use xlink:href="#DejaVuSans-72" x="810.539062"/>
      <use xlink:href="#DejaVuSans-6f" x="849.402344"/>
      <use xlink:href="#DejaVuSans-75" x="910.583984"/>
      <use xlink:href="#DejaVuSans-6e" x="973.962891"/>
      <use xlink:href="#DejaVuSans-64" x="1037.341797"/>
     </g>
    </g>
   </g>
   <g id="LineCollection_1">
    <path d="M 48.049654 124.814298 
L 48.049654 95.233717 
" clip-path="url(#p74bc321983)" style="fill: none; stroke: #1f77b4"/>
    <path d="M 60.805793 113.462935 
L 60.805793 86.444168 
" clip-path="url(#p74bc321983)" style="fill: none; stroke: #1f77b4"/>
    <path d="M 73.561932 116.177157 
L 73.561932 98.377881 
" clip-path="url(#p74bc321983)" style="fill: none; stroke: #1f77b4"/>
    <path d="M 86.318071 82.292045 
L 86.318071 59.023314 
" clip-path="url(#p74bc321983)" style="fill: none; stroke: #1f77b4"/>
    <path d="M 99.07421 85.841643 
L 99.07421 53.642724 
" clip-path="url(#p74bc321983)" style="fill: none; stroke: #1f77b4"/>
    <path d="M 111.830349 92.629583 
L 111.830349 52.34776 
" clip-path="url(#p74bc321983)" style="fill: none; stroke: #1f77b4"/>
    <path d="M 124.586489 95.778232 
L 124.586489 65.678038 
" clip-path="url(#p74bc321983)" style="fill: none; stroke: #1f77b4"/>
    <path d="M 137.342628 56.133025 
L 137.342628 33.914558 
" clip-path="url(#p74bc321983)" style="fill: none; stroke: #1f77b4"/>
    <path d="M 150.098767 70.614703 
L 150.098767 41.404785 
" clip-path="url(#p74bc321983)" style="fill: none; stroke: #1f77b4"/>
    <path d="M 162.854906 102.832403 
L 162.854906 56.792875 
" clip-path="url(#p74bc321983)" style="fill: none; stroke: #1f77b4"/>
    <path d="M 175.611045 59.851449 
L 175.611045 37.520102 
" clip-path="url(#p74bc321983)" style="fill: none; stroke: #1f77b4"/>
    <path d="M 188.367184 58.09527 
L 188.367184 35.614297 
" clip-path="url(#p74bc321983)" style="fill: none; stroke: #1f77b4"/>
    <path d="M 201.123323 74.698747 
L 201.123323 42.813716 
" clip-path="url(#p74bc321983)" style="fill: none; stroke: #1f77b4"/>
    <path d="M 213.879462 72.124148 
L 213.879462 27.078396 
" clip-path="url(#p74bc321983)" style="fill: none; stroke: #1f77b4"/>
    <path d="M 226.635601 51.093258 
L 226.635601 29.799365 
" clip-path="url(#p74bc321983)" style="fill: none; stroke: #1f77b4"/>
    <path d="M 239.39174 58.450303 
L 239.39174 27.935296 
" clip-path="url(#p74bc321983)" style="fill: none; stroke: #1f77b4"/>
   </g>
   <g id="line2d_15">
    <defs>
     <path id="mb0f863cf39" d="M 3 0 
L -3 -0 
" style="stroke: #1f77b4"/>
    </defs>
    <g clip-path="url(#p74bc321983)">
     <use xlink:href="#mb0f863cf39" x="48.049654" y="124.814298" style="fill: #1f77b4; stroke: #1f77b4"/>
     <use xlink:href="#mb0f863cf39" x="60.805793" y="113.462935" style="fill: #1f77b4; stroke: #1f77b4"/>
     <use xlink:href="#mb0f863cf39" x="73.561932" y="116.177157" style="fill: #1f77b4; stroke: #1f77b4"/>
     <use xlink:href="#mb0f863cf39" x="86.318071" y="82.292045" style="fill: #1f77b4; stroke: #1f77b4"/>
     <use xlink:href="#mb0f863cf39" x="99.07421" y="85.841643" style="fill: #1f77b4; stroke: #1f77b4"/>
     <use xlink:href="#mb0f863cf39" x="111.830349" y="92.629583" style="fill: #1f77b4; stroke: #1f77b4"/>
     <use xlink:href="#mb0f863cf39" x="124.586489" y="95.778232" style="fill: #1f77b4; stroke: #1f77b4"/>
     <use xlink:href="#mb0f863cf39" x="137.342628" y="56.133025" style="fill: #1f77b4; stroke: #1f77b4"/>
     <use xlink:href="#mb0f863cf39" x="150.098767" y="70.614703" style="fill: #1f77b4; stroke: #1f77b4"/>
     <use xlink:href="#mb0f863cf39" x="162.854906" y="102.832403" style="fill: #1f77b4; stroke: #1f77b4"/>
     <use xlink:href="#mb0f863cf39" x="175.611045" y="59.851449" style="fill: #1f77b4; stroke: #1f77b4"/>
     <use xlink:href="#mb0f863cf39" x="188.367184" y="58.09527" style="fill: #1f77b4; stroke: #1f77b4"/>
     <use xlink:href="#mb0f863cf39" x="201.123323" y="74.698747" style="fill: #1f77b4; stroke: #1f77b4"/>
     <use xlink:href="#mb0f863cf39" x="213.879462" y="72.124148" style="fill: #1f77b4; stroke: #1f77b4"/>
     <use xlink:href="#mb0f863cf39" x="226.635601" y="51.093258" style="fill: #1f77b4; stroke: #1f77b4"/>
     <use xlink:href="#mb0f863cf39" x="239.39174" y="58.450303" style="fill: #1f77b4; stroke: #1f77b4"/>
    </g>
   </g>
   <g id="line2d_16">
    <g clip-path="url(#p74bc321983)">
     <use xlink:href="#mb0f863cf39" x="48.049654" y="95.233717" style="fill: #1f77b4; stroke: #1f77b4"/>
     <use xlink:href="#mb0f863cf39" x="60.805793" y="86.444168" style="fill: #1f77b4; stroke: #1f77b4"/>
     <use xlink:href="#mb0f863cf39" x="73.561932" y="98.377881" style="fill: #1f77b4; stroke: #1f77b4"/>
     <use xlink:href="#mb0f863cf39" x="86.318071" y="59.023314" style="fill: #1f77b4; stroke: #1f77b4"/>
     <use xlink:href="#mb0f863cf39" x="99.07421" y="53.642724" style="fill: #1f77b4; stroke: #1f77b4"/>
     <use xlink:href="#mb0f863cf39" x="111.830349" y="52.34776" style="fill: #1f77b4; stroke: #1f77b4"/>
     <use xlink:href="#mb0f863cf39" x="124.586489" y="65.678038" style="fill: #1f77b4; stroke: #1f77b4"/>
     <use xlink:href="#mb0f863cf39" x="137.342628" y="33.914558" style="fill: #1f77b4; stroke: #1f77b4"/>
     <use xlink:href="#mb0f863cf39" x="150.098767" y="41.404785" style="fill: #1f77b4; stroke: #1f77b4"/>
     <use xlink:href="#mb0f863cf39" x="162.854906" y="56.792875" style="fill: #1f77b4; stroke: #1f77b4"/>
     <use xlink:href="#mb0f863cf39" x="175.611045" y="37.520102" style="fill: #1f77b4; stroke: #1f77b4"/>
     <use xlink:href="#mb0f863cf39" x="188.367184" y="35.614297" style="fill: #1f77b4; stroke: #1f77b4"/>
     <use xlink:href="#mb0f863cf39" x="201.123323" y="42.813716" style="fill: #1f77b4; stroke: #1f77b4"/>
     <use xlink:href="#mb0f863cf39" x="213.879462" y="27.078396" style="fill: #1f77b4; stroke: #1f77b4"/>
     <use xlink:href="#mb0f863cf39" x="226.635601" y="29.799365" style="fill: #1f77b4; stroke: #1f77b4"/>
     <use xlink:href="#mb0f863cf39" x="239.39174" y="27.935296" style="fill: #1f77b4; stroke: #1f77b4"/>
    </g>
   </g>
   <g id="LineCollection_2">
    <path d="M 48.049654 105.904275 
L 48.049654 72.946419 
" clip-path="url(#p74bc321983)" style="fill: none; stroke: #ff7f0e"/>
    <path d="M 60.805793 139.681321 
L 60.805793 98.905487 
" clip-path="url(#p74bc321983)" style="fill: none; stroke: #ff7f0e"/>
    <path d="M 73.561932 109.545779 
L 73.561932 79.604246 
" clip-path="url(#p74bc321983)" style="fill: none; stroke: #ff7f0e"/>
    <path d="M 86.318071 79.272114 
L 86.318071 58.38126 
" clip-path="url(#p74bc321983)" style="fill: none; stroke: #ff7f0e"/>
    <path d="M 99.07421 70.976793 
L 99.07421 44.018056 
" clip-path="url(#p74bc321983)" style="fill: none; stroke: #ff7f0e"/>
    <path d="M 111.830349 82.32367 
L 111.830349 47.090241 
" clip-path="url(#p74bc321983)" style="fill: none; stroke: #ff7f0e"/>
    <path d="M 124.586489 98.838395 
L 124.586489 49.11431 
" clip-path="url(#p74bc321983)" style="fill: none; stroke: #ff7f0e"/>
    <path d="M 137.342628 98.626974 
L 137.342628 47.265865 
" clip-path="url(#p74bc321983)" style="fill: none; stroke: #ff7f0e"/>
    <path d="M 150.098767 82.32367 
L 150.098767 47.090241 
" clip-path="url(#p74bc321983)" style="fill: none; stroke: #ff7f0e"/>
    <path d="M 162.854906 67.095628 
L 162.854906 52.018953 
" clip-path="url(#p74bc321983)" style="fill: none; stroke: #ff7f0e"/>
    <path d="M 175.611045 58.360993 
L 175.611045 25.735866 
" clip-path="url(#p74bc321983)" style="fill: none; stroke: #ff7f0e"/>
    <path d="M 188.367184 88.552487 
L 188.367184 44.981156 
" clip-path="url(#p74bc321983)" style="fill: none; stroke: #ff7f0e"/>
    <path d="M 201.123323 52.249278 
L 201.123323 27.727849 
" clip-path="url(#p74bc321983)" style="fill: none; stroke: #ff7f0e"/>
    <path d="M 213.879462 64.588568 
L 213.879462 44.226683 
" clip-path="url(#p74bc321983)" style="fill: none; stroke: #ff7f0e"/>
    <path d="M 226.635601 82.305924 
L 226.635601 36.808658 
" clip-path="url(#p74bc321983)" style="fill: none; stroke: #ff7f0e"/>
    <path d="M 239.39174 47.621644 
L 239.39174 28.235752 
" clip-path="url(#p74bc321983)" style="fill: none; stroke: #ff7f0e"/>
   </g>
   <g id="line2d_17">
    <defs>
     <path id="m81c6d7daeb" d="M 3 0 
L -3 -0 
" style="stroke: #ff7f0e"/>
    </defs>
    <g clip-path="url(#p74bc321983)">
     <use xlink:href="#m81c6d7daeb" x="48.049654" y="105.904275" style="fill: #ff7f0e; stroke: #ff7f0e"/>
     <use xlink:href="#m81c6d7daeb" x="60.805793" y="139.681321" style="fill: #ff7f0e; stroke: #ff7f0e"/>
     <use xlink:href="#m81c6d7daeb" x="73.561932" y="109.545779" style="fill: #ff7f0e; stroke: #ff7f0e"/>
     <use xlink:href="#m81c6d7daeb" x="86.318071" y="79.272114" style="fill: #ff7f0e; stroke: #ff7f0e"/>
     <use xlink:href="#m81c6d7daeb" x="99.07421" y="70.976793" style="fill: #ff7f0e; stroke: #ff7f0e"/>
     <use xlink:href="#m81c6d7daeb" x="111.830349" y="82.32367" style="fill: #ff7f0e; stroke: #ff7f0e"/>
     <use xlink:href="#m81c6d7daeb" x="124.586489" y="98.838395" style="fill: #ff7f0e; stroke: #ff7f0e"/>
     <use xlink:href="#m81c6d7daeb" x="137.342628" y="98.626974" style="fill: #ff7f0e; stroke: #ff7f0e"/>
     <use xlink:href="#m81c6d7daeb" x="150.098767" y="82.32367" style="fill: #ff7f0e; stroke: #ff7f0e"/>
     <use xlink:href="#m81c6d7daeb" x="162.854906" y="67.095628" style="fill: #ff7f0e; stroke: #ff7f0e"/>
     <use xlink:href="#m81c6d7daeb" x="175.611045" y="58.360993" style="fill: #ff7f0e; stroke: #ff7f0e"/>
     <use xlink:href="#m81c6d7daeb" x="188.367184" y="88.552487" style="fill: #ff7f0e; stroke: #ff7f0e"/>
     <use xlink:href="#m81c6d7daeb" x="201.123323" y="52.249278" style="fill: #ff7f0e; stroke: #ff7f0e"/>
     <use xlink:href="#m81c6d7daeb" x="213.879462" y="64.588568" style="fill: #ff7f0e; stroke: #ff7f0e"/>
     <use xlink:href="#m81c6d7daeb" x="226.635601" y="82.305924" style="fill: #ff7f0e; stroke: #ff7f0e"/>
     <use xlink:href="#m81c6d7daeb" x="239.39174" y="47.621644" style="fill: #ff7f0e; stroke: #ff7f0e"/>
    </g>
   </g>
   <g id="line2d_18">
    <g clip-path="url(#p74bc321983)">
     <use xlink:href="#m81c6d7daeb" x="48.049654" y="72.946419" style="fill: #ff7f0e; stroke: #ff7f0e"/>
     <use xlink:href="#m81c6d7daeb" x="60.805793" y="98.905487" style="fill: #ff7f0e; stroke: #ff7f0e"/>
     <use xlink:href="#m81c6d7daeb" x="73.561932" y="79.604246" style="fill: #ff7f0e; stroke: #ff7f0e"/>
     <use xlink:href="#m81c6d7daeb" x="86.318071" y="58.38126" style="fill: #ff7f0e; stroke: #ff7f0e"/>
     <use xlink:href="#m81c6d7daeb" x="99.07421" y="44.018056" style="fill: #ff7f0e; stroke: #ff7f0e"/>
     <use xlink:href="#m81c6d7daeb" x="111.830349" y="47.090241" style="fill: #ff7f0e; stroke: #ff7f0e"/>
     <use xlink:href="#m81c6d7daeb" x="124.586489" y="49.11431" style="fill: #ff7f0e; stroke: #ff7f0e"/>
     <use xlink:href="#m81c6d7daeb" x="137.342628" y="47.265865" style="fill: #ff7f0e; stroke: #ff7f0e"/>
     <use xlink:href="#m81c6d7daeb" x="150.098767" y="47.090241" style="fill: #ff7f0e; stroke: #ff7f0e"/>
     <use xlink:href="#m81c6d7daeb" x="162.854906" y="52.018953" style="fill: #ff7f0e; stroke: #ff7f0e"/>
     <use xlink:href="#m81c6d7daeb" x="175.611045" y="25.735866" style="fill: #ff7f0e; stroke: #ff7f0e"/>
     <use xlink:href="#m81c6d7daeb" x="188.367184" y="44.981156" style="fill: #ff7f0e; stroke: #ff7f0e"/>
     <use xlink:href="#m81c6d7daeb" x="201.123323" y="27.727849" style="fill: #ff7f0e; stroke: #ff7f0e"/>
     <use xlink:href="#m81c6d7daeb" x="213.879462" y="44.226683" style="fill: #ff7f0e; stroke: #ff7f0e"/>
     <use xlink:href="#m81c6d7daeb" x="226.635601" y="36.808658" style="fill: #ff7f0e; stroke: #ff7f0e"/>
     <use xlink:href="#m81c6d7daeb" x="239.39174" y="28.235752" style="fill: #ff7f0e; stroke: #ff7f0e"/>
    </g>
   </g>
   <g id="line2d_19">
    <path d="M 48.049654 110.024007 
L 60.805793 99.953551 
L 73.561932 107.277519 
L 86.318071 70.657679 
L 99.07421 69.742183 
L 111.830349 72.488671 
L 124.586489 80.728135 
L 137.342628 45.023792 
L 150.098767 56.009744 
L 162.854906 79.812639 
L 175.611045 48.685776 
L 188.367184 46.854784 
L 201.123323 58.756232 
L 213.879462 49.601272 
L 226.635601 40.446312 
L 239.39174 43.1928 
" clip-path="url(#p74bc321983)" style="fill: none; stroke: #1f77b4; stroke-linecap: square"/>
    <defs>
     <path id="m6e2f563148" d="M 0 1.5 
C 0.397805 1.5 0.77937 1.341951 1.06066 1.06066 
C 1.341951 0.77937 1.5 0.397805 1.5 0 
C 1.5 -0.397805 1.341951 -0.77937 1.06066 -1.06066 
C 0.77937 -1.341951 0.397805 -1.5 0 -1.5 
C -0.397805 -1.5 -0.77937 -1.341951 -1.06066 -1.06066 
C -1.341951 -0.77937 -1.5 -0.397805 -1.5 0 
C -1.5 0.397805 -1.341951 0.77937 -1.06066 1.06066 
C -0.77937 1.341951 -0.397805 1.5 0 1.5 
z
" style="stroke: #1f77b4"/>
    </defs>
    <g clip-path="url(#p74bc321983)">
     <use xlink:href="#m6e2f563148" x="48.049654" y="110.024007" style="fill: #1f77b4; stroke: #1f77b4"/>
     <use xlink:href="#m6e2f563148" x="60.805793" y="99.953551" style="fill: #1f77b4; stroke: #1f77b4"/>
     <use xlink:href="#m6e2f563148" x="73.561932" y="107.277519" style="fill: #1f77b4; stroke: #1f77b4"/>
     <use xlink:href="#m6e2f563148" x="86.318071" y="70.657679" style="fill: #1f77b4; stroke: #1f77b4"/>
     <use xlink:href="#m6e2f563148" x="99.07421" y="69.742183" style="fill: #1f77b4; stroke: #1f77b4"/>
     <use xlink:href="#m6e2f563148" x="111.830349" y="72.488671" style="fill: #1f77b4; stroke: #1f77b4"/>
     <use xlink:href="#m6e2f563148" x="124.586489" y="80.728135" style="fill: #1f77b4; stroke: #1f77b4"/>
     <use xlink:href="#m6e2f563148" x="137.342628" y="45.023792" style="fill: #1f77b4; stroke: #1f77b4"/>
     <use xlink:href="#m6e2f563148" x="150.098767" y="56.009744" style="fill: #1f77b4; stroke: #1f77b4"/>
     <use xlink:href="#m6e2f563148" x="162.854906" y="79.812639" style="fill: #1f77b4; stroke: #1f77b4"/>
     <use xlink:href="#m6e2f563148" x="175.611045" y="48.685776" style="fill: #1f77b4; stroke: #1f77b4"/>
     <use xlink:href="#m6e2f563148" x="188.367184" y="46.854784" style="fill: #1f77b4; stroke: #1f77b4"/>
     <use xlink:href="#m6e2f563148" x="201.123323" y="58.756232" style="fill: #1f77b4; stroke: #1f77b4"/>
     <use xlink:href="#m6e2f563148" x="213.879462" y="49.601272" style="fill: #1f77b4; stroke: #1f77b4"/>
     <use xlink:href="#m6e2f563148" x="226.635601" y="40.446312" style="fill: #1f77b4; stroke: #1f77b4"/>
     <use xlink:href="#m6e2f563148" x="239.39174" y="43.1928" style="fill: #1f77b4; stroke: #1f77b4"/>
    </g>
   </g>
   <g id="line2d_20">
    <path d="M 48.049654 89.425347 
L 60.805793 119.293404 
L 73.561932 94.575012 
L 86.318071 68.826687 
L 99.07421 57.497425 
L 111.830349 64.706955 
L 124.586489 73.976352 
L 137.342628 72.946419 
L 150.098767 64.706955 
L 162.854906 59.557291 
L 175.611045 42.04843 
L 188.367184 66.766821 
L 201.123323 39.988564 
L 213.879462 54.407626 
L 226.635601 59.557291 
L 239.39174 37.928698 
" clip-path="url(#p74bc321983)" style="fill: none; stroke-dasharray: 3.7,1.6; stroke-dashoffset: 0; stroke: #ff7f0e"/>
    <defs>
     <path id="m2145f45b5b" d="M 0 1.5 
C 0.397805 1.5 0.77937 1.341951 1.06066 1.06066 
C 1.341951 0.77937 1.5 0.397805 1.5 0 
C 1.5 -0.397805 1.341951 -0.77937 1.06066 -1.06066 
C 0.77937 -1.341951 0.397805 -1.5 0 -1.5 
C -0.397805 -1.5 -0.77937 -1.341951 -1.06066 -1.06066 
C -1.341951 -0.77937 -1.5 -0.397805 -1.5 0 
C -1.5 0.397805 -1.341951 0.77937 -1.06066 1.06066 
C -0.77937 1.341951 -0.397805 1.5 0 1.5 
z
" style="stroke: #ff7f0e"/>
    </defs>
    <g clip-path="url(#p74bc321983)">
     <use xlink:href="#m2145f45b5b" x="48.049654" y="89.425347" style="fill: #ff7f0e; stroke: #ff7f0e"/>
     <use xlink:href="#m2145f45b5b" x="60.805793" y="119.293404" style="fill: #ff7f0e; stroke: #ff7f0e"/>
     <use xlink:href="#m2145f45b5b" x="73.561932" y="94.575012" style="fill: #ff7f0e; stroke: #ff7f0e"/>
     <use xlink:href="#m2145f45b5b" x="86.318071" y="68.826687" style="fill: #ff7f0e; stroke: #ff7f0e"/>
     <use xlink:href="#m2145f45b5b" x="99.07421" y="57.497425" style="fill: #ff7f0e; stroke: #ff7f0e"/>
     <use xlink:href="#m2145f45b5b" x="111.830349" y="64.706955" style="fill: #ff7f0e; stroke: #ff7f0e"/>
     <use xlink:href="#m2145f45b5b" x="124.586489" y="73.976352" style="fill: #ff7f0e; stroke: #ff7f0e"/>
     <use xlink:href="#m2145f45b5b" x="137.342628" y="72.946419" style="fill: #ff7f0e; stroke: #ff7f0e"/>
     <use xlink:href="#m2145f45b5b" x="150.098767" y="64.706955" style="fill: #ff7f0e; stroke: #ff7f0e"/>
     <use xlink:href="#m2145f45b5b" x="162.854906" y="59.557291" style="fill: #ff7f0e; stroke: #ff7f0e"/>
     <use xlink:href="#m2145f45b5b" x="175.611045" y="42.04843" style="fill: #ff7f0e; stroke: #ff7f0e"/>
     <use xlink:href="#m2145f45b5b" x="188.367184" y="66.766821" style="fill: #ff7f0e; stroke: #ff7f0e"/>
     <use xlink:href="#m2145f45b5b" x="201.123323" y="39.988564" style="fill: #ff7f0e; stroke: #ff7f0e"/>
     <use xlink:href="#m2145f45b5b" x="213.879462" y="54.407626" style="fill: #ff7f0e; stroke: #ff7f0e"/>
     <use xlink:href="#m2145f45b5b" x="226.635601" y="59.557291" style="fill: #ff7f0e; stroke: #ff7f0e"/>
     <use xlink:href="#m2145f45b5b" x="239.39174" y="37.928698" style="fill: #ff7f0e; stroke: #ff7f0e"/>
    </g>
   </g>
   <g id="patch_3">
    <path d="M 44.222813 145.378594 
L 44.222813 20.038594 
" style="fill: none; stroke: #000000; stroke-width: 0.8; stroke-linejoin: miter; stroke-linecap: square"/>
   </g>
   <g id="patch_4">
    <path d="M 44.222813 145.378594 
L 243.218582 145.378594 
" style="fill: none; stroke: #000000; stroke-width: 0.8; stroke-linejoin: miter; stroke-linecap: square"/>
   </g>
   <g id="text_17">
    <!-- Average payoff over rounds by group -->
    <g transform="translate(59.860385 14.038594) scale(0.09 -0.09)">
     <defs>
      <path id="DejaVuSans-41" d="M 2188 4044 
L 1331 1722 
L 3047 1722 
L 2188 4044 
z
M 1831 4666 
L 2547 4666 
L 4325 0 
L 3669 0 
L 3244 1197 
L 1141 1197 
L 716 0 
L 50 0 
L 1831 4666 
z
" transform="scale(0.015625)"/>
      <path id="DejaVuSans-76" d="M 191 3500 
L 800 3500 
L 1894 563 
L 2988 3500 
L 3597 3500 
L 2284 0 
L 1503 0 
L 191 3500 
z
" transform="scale(0.015625)"/>
      <path id="DejaVuSans-67" d="M 2906 1791 
Q 2906 2416 2648 2759 
Q 2391 3103 1925 3103 
Q 1463 3103 1205 2759 
Q 947 2416 947 1791 
Q 947 1169 1205 825 
Q 1463 481 1925 481 
Q 2391 481 2648 825 
Q 2906 1169 2906 1791 
z
M 3481 434 
Q 3481 -459 3084 -895 
Q 2688 -1331 1869 -1331 
Q 1566 -1331 1297 -1286 
Q 1028 -1241 775 -1147 
L 775 -588 
Q 1028 -725 1275 -790 
Q 1522 -856 1778 -856 
Q 2344 -856 2625 -561 
Q 2906 -266 2906 331 
L 2906 616 
Q 2728 306 2450 153 
Q 2172 0 1784 0 
Q 1141 0 747 490 
Q 353 981 353 1791 
Q 353 2603 747 3093 
Q 1141 3584 1784 3584 
Q 2172 3584 2450 3431 
Q 2728 3278 2906 2969 
L 2906 3500 
L 3481 3500 
L 3481 434 
z
" transform="scale(0.015625)"/>
      <path id="DejaVuSans-73" d="M 2834 3397 
L 2834 2853 
Q 2591 2978 2328 3040 
Q 2066 3103 1784 3103 
Q 1356 3103 1142 2972 
Q 928 2841 928 2578 
Q 928 2378 1081 2264 
Q 1234 2150 1697 2047 
L 1894 2003 
Q 2506 1872 2764 1633 
Q 3022 1394 3022 966 
Q 3022 478 2636 193 
Q 2250 -91 1575 -91 
Q 1294 -91 989 -36 
Q 684 19 347 128 
L 347 722 
Q 666 556 975 473 
Q 1284 391 1588 391 
Q 1994 391 2212 530 
Q 2431 669 2431 922 
Q 2431 1156 2273 1281 
Q 2116 1406 1581 1522 
L 1381 1569 
Q 847 1681 609 1914 
Q 372 2147 372 2553 
Q 372 3047 722 3315 
Q 1072 3584 1716 3584 
Q 2034 3584 2315 3537 
Q 2597 3491 2834 3397 
z
" transform="scale(0.015625)"/>
      <path id="DejaVuSans-62" d="M 3116 1747 
Q 3116 2381 2855 2742 
Q 2594 3103 2138 3103 
Q 1681 3103 1420 2742 
Q 1159 2381 1159 1747 
Q 1159 1113 1420 752 
Q 1681 391 2138 391 
Q 2594 391 2855 752 
Q 3116 1113 3116 1747 
z
M 1159 2969 
Q 1341 3281 1617 3432 
Q 1894 3584 2278 3584 
Q 2916 3584 3314 3078 
Q 3713 2572 3713 1747 
Q 3713 922 3314 415 
Q 2916 -91 2278 -91 
Q 1894 -91 1617 61 
Q 1341 213 1159 525 
L 1159 0 
L 581 0 
L 581 4863 
L 1159 4863 
L 1159 2969 
z
" transform="scale(0.015625)"/>
     </defs>
     <use xlink:href="#DejaVuSans-41"/>
     <use xlink:href="#DejaVuSans-76" x="62.533203"/>
     <use xlink:href="#DejaVuSans-65" x="121.712891"/>
     <use xlink:href="#DejaVuSans-72" x="183.236328"/>
     <use xlink:href="#DejaVuSans-61" x="224.349609"/>
     <use xlink:href="#DejaVuSans-67" x="285.628906"/>
     <use xlink:href="#DejaVuSans-65" x="349.105469"/>
     <use xlink:href="#DejaVuSans-20" x="410.628906"/>
     <use xlink:href="#DejaVuSans-70" x="442.416016"/>
     <use xlink:href="#DejaVuSans-61" x="505.892578"/>
     <use xlink:href="#DejaVuSans-79" x="567.171875"/>
     <use xlink:href="#DejaVuSans-6f" x="626.351562"/>
     <use xlink:href="#DejaVuSans-66" x="687.533203"/>
     <use xlink:href="#DejaVuSans-66" x="722.738281"/>
     <use xlink:href="#DejaVuSans-20" x="757.943359"/>
     <use xlink:href="#DejaVuSans-6f" x="789.730469"/>
     <use xlink:href="#DejaVuSans-76" x="850.912109"/>
     <use xlink:href="#DejaVuSans-65" x="910.091797"/>
     <use xlink:href="#DejaVuSans-72" x="971.615234"/>
     <use xlink:href="#DejaVuSans-20" x="1012.728516"/>
     <use xlink:href="#DejaVuSans-72" x="1044.515625"/>
     <use xlink:href="#DejaVuSans-6f" x="1083.378906"/>
     <use xlink:href="#DejaVuSans-75" x="1144.560547"/>
     <use xlink:href="#DejaVuSans-6e" x="1207.939453"/>
     <use xlink:href="#DejaVuSans-64" x="1271.318359"/>
     <use xlink:href="#DejaVuSans-73" x="1334.794922"/>
     <use xlink:href="#DejaVuSans-20" x="1386.894531"/>
     <use xlink:href="#DejaVuSans-62" x="1418.681641"/>
     <use xlink:href="#DejaVuSans-79" x="1482.158203"/>
     <use xlink:href="#DejaVuSans-20" x="1541.337891"/>
     <use xlink:href="#DejaVuSans-67" x="1573.125"/>
     <use xlink:href="#DejaVuSans-72" x="1636.601562"/>
     <use xlink:href="#DejaVuSans-6f" x="1675.464844"/>
     <use xlink:href="#DejaVuSans-75" x="1736.646484"/>
     <use xlink:href="#DejaVuSans-70" x="1800.025391"/>
    </g>
   </g>
   <g id="legend_1">
    <g id="text_18">
     <!-- Group -->
     <g transform="translate(207.435457 113.029844) scale(0.08 -0.08)">
      <defs>
       <path id="DejaVuSans-47" d="M 3809 666 
L 3809 1919 
L 2778 1919 
L 2778 2438 
L 4434 2438 
L 4434 434 
Q 4069 175 3628 42 
Q 3188 -91 2688 -91 
Q 1594 -91 976 548 
Q 359 1188 359 2328 
Q 359 3472 976 4111 
Q 1594 4750 2688 4750 
Q 3144 4750 3555 4637 
Q 3966 4525 4313 4306 
L 4313 3634 
Q 3963 3931 3569 4081 
Q 3175 4231 2741 4231 
Q 1884 4231 1454 3753 
Q 1025 3275 1025 2328 
Q 1025 1384 1454 906 
Q 1884 428 2741 428 
Q 3075 428 3337 486 
Q 3600 544 3809 666 
z
" transform="scale(0.015625)"/>
      </defs>
      <use xlink:href="#DejaVuSans-47"/>
      <use xlink:href="#DejaVuSans-72" x="77.490234"/>
      <use xlink:href="#DejaVuSans-6f" x="116.353516"/>
      <use xlink:href="#DejaVuSans-75" x="177.535156"/>
      <use xlink:href="#DejaVuSans-70" x="240.914062"/>
     </g>
    </g>
    <g id="LineCollection_3">
     <path d="M 211.203582 125.972344 
L 211.203582 117.972344 
" style="fill: none; stroke: #1f77b4"/>
    </g>
    <g id="line2d_21">
     <g>
      <use xlink:href="#mb0f863cf39" x="211.203582" y="125.972344" style="fill: #1f77b4; stroke: #1f77b4"/>
     </g>
    </g>
    <g id="line2d_22">
     <g>
      <use xlink:href="#mb0f863cf39" x="211.203582" y="117.972344" style="fill: #1f77b4; stroke: #1f77b4"/>
     </g>
    </g>
    <g id="line2d_23">
     <path d="M 203.203582 121.972344 
L 219.203582 121.972344 
" style="fill: none; stroke: #1f77b4; stroke-linecap: square"/>
    </g>
    <g id="line2d_24">
     <g>
      <use xlink:href="#m6e2f563148" x="211.203582" y="121.972344" style="fill: #1f77b4; stroke: #1f77b4"/>
     </g>
    </g>
    <g id="text_19">
     <!-- Hc -->
     <g transform="translate(225.603582 124.772344) scale(0.08 -0.08)">
      <defs>
       <path id="DejaVuSans-48" d="M 628 4666 
L 1259 4666 
L 1259 2753 
L 3553 2753 
L 3553 4666 
L 4184 4666 
L 4184 0 
L 3553 0 
L 3553 2222 
L 1259 2222 
L 1259 0 
L 628 0 
L 628 4666 
z
" transform="scale(0.015625)"/>
       <path id="DejaVuSans-63" d="M 3122 3366 
L 3122 2828 
Q 2878 2963 2633 3030 
Q 2388 3097 2138 3097 
Q 1578 3097 1268 2742 
Q 959 2388 959 1747 
Q 959 1106 1268 751 
Q 1578 397 2138 397 
Q 2388 397 2633 464 
Q 2878 531 3122 666 
L 3122 134 
Q 2881 22 2623 -34 
Q 2366 -91 2075 -91 
Q 1284 -91 818 406 
Q 353 903 353 1747 
Q 353 2603 823 3093 
Q 1294 3584 2113 3584 
Q 2378 3584 2631 3529 
Q 2884 3475 3122 3366 
z
" transform="scale(0.015625)"/>
      </defs>
      <use xlink:href="#DejaVuSans-48"/>
      <use xlink:href="#DejaVuSans-63" x="75.195312"/>
     </g>
    </g>
    <g id="LineCollection_4">
     <path d="M 211.203582 137.714844 
L 211.203582 129.714844 
" style="fill: none; stroke: #ff7f0e"/>
    </g>
    <g id="line2d_25">
     <g>
      <use xlink:href="#m81c6d7daeb" x="211.203582" y="137.714844" style="fill: #ff7f0e; stroke: #ff7f0e"/>
     </g>
    </g>
    <g id="line2d_26">
     <g>
      <use xlink:href="#m81c6d7daeb" x="211.203582" y="129.714844" style="fill: #ff7f0e; stroke: #ff7f0e"/>
     </g>
    </g>
    <g id="line2d_27">
     <path d="M 203.203582 133.714844 
L 219.203582 133.714844 
" style="fill: none; stroke-dasharray: 3.7,1.6; stroke-dashoffset: 0; stroke: #ff7f0e"/>
    </g>
    <g id="line2d_28">
     <g>
      <use xlink:href="#m2145f45b5b" x="211.203582" y="133.714844" style="fill: #ff7f0e; stroke: #ff7f0e"/>
     </g>
    </g>
    <g id="text_20">
     <!-- Lc -->
     <g transform="translate(225.603582 136.514844) scale(0.08 -0.08)">
      <defs>
       <path id="DejaVuSans-4c" d="M 628 4666 
L 1259 4666 
L 1259 531 
L 3531 531 
L 3531 0 
L 628 0 
L 628 4666 
z
" transform="scale(0.015625)"/>
      </defs>
      <use xlink:href="#DejaVuSans-4c"/>
      <use xlink:href="#DejaVuSans-63" x="55.712891"/>
     </g>
    </g>
   </g>
  </g>
 </g>
 <defs>
  <clipPath id="p74bc321983">
   <rect x="44.222813" y="20.038594" width="198.995769" height="125.34"/>
  </clipPath>
 </defs>
</svg>
